<svg width="208" height="86" viewBox="0 0 208 86" fill="none" xmlns="http://www.w3.org/2000/svg">
<path fill-rule="evenodd" clip-rule="evenodd" d="M44.8182 78.3636H131.682C132.173 78.3636 132.652 78.3105 133.114 78.2098C133.575 78.3105 134.054 78.3636 134.545 78.3636H184.182C187.872 78.3636 190.864 75.372 190.864 71.6818C190.864 67.9915 187.872 65 184.182 65H178.455C174.764 65 171.773 62.0084 171.773 58.3181C171.773 54.6279 174.764 51.6363 178.455 51.6363H196.591C200.281 51.6363 203.273 48.6448 203.273 44.9545C203.273 41.2642 200.281 38.2727 196.591 38.2727H175.591C179.281 38.2727 182.273 35.2811 182.273 31.5909C182.273 27.9006 179.281 24.909 175.591 24.909H114.5C118.19 24.909 121.182 21.9175 121.182 18.2272C121.182 14.537 118.19 11.5454 114.5 11.5454H60.0909C56.4006 11.5454 53.4091 14.537 53.4091 18.2272C53.4091 21.9175 56.4006 24.909 60.0909 24.909H21.9091C18.2188 24.909 15.2273 27.9006 15.2273 31.5909C15.2273 35.2811 18.2188 38.2727 21.9091 38.2727H45.7727C49.463 38.2727 52.4545 41.2642 52.4545 44.9545C52.4545 48.6448 49.463 51.6363 45.7727 51.6363H7.59091C3.90064 51.6363 0.909088 54.6279 0.909088 58.3181C0.909088 62.0084 3.90064 65 7.59091 65H44.8182C41.1279 65 38.1364 67.9915 38.1364 71.6818C38.1364 75.372 41.1279 78.3636 44.8182 78.3636ZM200.409 78.3636C204.099 78.3636 207.091 75.3721 207.091 71.6818C207.091 67.9916 204.099 65 200.409 65C196.719 65 193.727 67.9916 193.727 71.6818C193.727 75.3721 196.719 78.3636 200.409 78.3636Z" fill="#141C33"/>
<path fill-rule="evenodd" clip-rule="evenodd" d="M92.6586 57.6563C92.584 58.1844 92.5454 58.724 92.5454 59.2727C92.5454 65.5989 97.6738 70.7273 104 70.7273C110.326 70.7273 115.455 65.5989 115.455 59.2727C115.455 58.724 115.416 58.1844 115.341 57.6563H143.136V83.1364C143.136 84.7179 141.854 86 140.273 86H67.7273C66.1457 86 64.8636 84.7179 64.8636 83.1364V57.6563H92.6586Z" fill="#060C1F"/>
<path fill-rule="evenodd" clip-rule="evenodd" d="M116.409 57.3636C116.409 64.217 110.853 69.7727 104 69.7727C97.1466 69.7727 91.5909 64.217 91.5909 57.3636C91.5909 57.1416 91.5967 56.9209 91.6082 56.7018H64.8636L73.9895 29.7189C74.3829 28.5556 75.4742 27.7727 76.7022 27.7727H131.298C132.526 27.7727 133.617 28.5556 134.01 29.7189L143.136 56.7018H116.392C116.403 56.9209 116.409 57.1416 116.409 57.3636Z" fill="#060C1F"/>
<path fill-rule="evenodd" clip-rule="evenodd" d="M114.593 58.2748C114.593 63.5706 109.85 68.8182 104 68.8182C98.1496 68.8182 93.4069 63.5706 93.4069 58.2748C93.4069 58.1032 93.4118 56.9782 93.4217 56.8088H73.4545L81.2449 37.8675C81.5808 36.9686 82.5123 36.3636 83.5606 36.3636H124.439C125.488 36.3636 126.419 36.9686 126.755 37.8675L134.545 56.8088H114.578C114.588 56.9782 114.593 58.1032 114.593 58.2748Z" fill="#141C33"/>
<path d="M66.0568 56.8981L64.9265 56.5158L64.8636 56.7018V56.8981H66.0568ZM141.943 56.8981H143.136V56.7018L143.073 56.5158L141.943 56.8981ZM132.88 30.1012L134.01 29.7189L132.88 30.1012ZM75.1198 30.1012L76.2501 30.4834L75.1198 30.1012ZM71.1385 55.216C70.4796 55.216 69.9454 55.7502 69.9454 56.4091C69.9454 57.0681 70.4796 57.6023 71.1385 57.6023V55.216ZM73.4545 57.6023C74.1135 57.6023 74.6477 57.0681 74.6477 56.4091C74.6477 55.7502 74.1135 55.216 73.4545 55.216V57.6023ZM78.2273 55.216C77.5683 55.216 77.0341 55.7502 77.0341 56.4091C77.0341 57.0681 77.5683 57.6023 78.2273 57.6023V55.216ZM141.227 57.6023C141.886 57.6023 142.42 57.0681 142.42 56.4091C142.42 55.7502 141.886 55.216 141.227 55.216V57.6023ZM104.334 2C104.334 1.34102 103.8 0.806818 103.141 0.806818C102.482 0.806818 101.947 1.34102 101.947 2H104.334ZM101.947 17.9942C101.947 18.6532 102.482 19.1874 103.141 19.1874C103.8 19.1874 104.334 18.6532 104.334 17.9942H101.947ZM79.118 5.31324C78.6795 4.82131 77.9253 4.77797 77.4334 5.21643C76.9414 5.6549 76.8981 6.40913 77.3365 6.90107L79.118 5.31324ZM87.9316 18.7881C88.3701 19.2801 89.1243 19.3234 89.6163 18.885C90.1082 18.4465 90.1515 17.6923 89.7131 17.2003L87.9316 18.7881ZM128.849 6.90107C129.288 6.40913 129.245 5.6549 128.753 5.21643C128.261 4.77797 127.506 4.82131 127.068 5.31324L128.849 6.90107ZM116.473 17.2003C116.034 17.6923 116.078 18.4465 116.57 18.885C117.062 19.3234 117.816 19.2801 118.254 18.7881L116.473 17.2003ZM64.8636 56.8981V82.1818H67.25V56.8981H64.8636ZM64.8636 82.1818C64.8636 83.7633 66.1457 85.0454 67.7273 85.0454V82.6591C67.4637 82.6591 67.25 82.4454 67.25 82.1818H64.8636ZM67.7273 85.0454H140.273V82.6591H67.7273V85.0454ZM140.273 85.0454C141.854 85.0454 143.136 83.7633 143.136 82.1818H140.75C140.75 82.4454 140.536 82.6591 140.273 82.6591V85.0454ZM143.136 82.1818V56.8981H140.75V82.1818H143.136ZM143.073 56.5158L134.01 29.7189L131.75 30.4834L140.813 57.2803L143.073 56.5158ZM134.01 29.7189C133.617 28.5557 132.526 27.7727 131.298 27.7727V30.1591C131.502 30.1591 131.684 30.2896 131.75 30.4834L134.01 29.7189ZM131.298 27.7727H76.7022V30.1591H131.298V27.7727ZM76.7022 27.7727C75.4742 27.7727 74.3829 28.5556 73.9895 29.7189L76.2501 30.4834C76.3157 30.2896 76.4975 30.1591 76.7022 30.1591V27.7727ZM73.9895 29.7189L64.9265 56.5158L67.1871 57.2803L76.2501 30.4834L73.9895 29.7189ZM71.1385 57.6023H73.4545V55.216H71.1385V57.6023ZM78.2273 57.6023C78.2346 57.6023 78.2419 57.6023 78.2493 57.6023C78.2566 57.6023 78.264 57.6023 78.2713 57.6023C78.2786 57.6023 78.286 57.6023 78.2933 57.6023C78.3007 57.6023 78.308 57.6023 78.3154 57.6023C78.3227 57.6023 78.3301 57.6023 78.3374 57.6023C78.3448 57.6023 78.3521 57.6023 78.3595 57.6023C78.3668 57.6023 78.3742 57.6023 78.3815 57.6023C78.3889 57.6023 78.3963 57.6023 78.4036 57.6023C78.411 57.6023 78.4183 57.6023 78.4257 57.6023C78.433 57.6023 78.4404 57.6023 78.4478 57.6023C78.4551 57.6023 78.4625 57.6023 78.4699 57.6023C78.4772 57.6023 78.4846 57.6023 78.492 57.6023C78.4993 57.6023 78.5067 57.6023 78.5141 57.6023C78.5214 57.6023 78.5288 57.6023 78.5362 57.6023C78.5435 57.6023 78.5509 57.6023 78.5583 57.6023C78.5657 57.6023 78.573 57.6023 78.5804 57.6023C78.5878 57.6023 78.5952 57.6023 78.6025 57.6023C78.6099 57.6023 78.6173 57.6023 78.6247 57.6023C78.6321 57.6023 78.6394 57.6023 78.6468 57.6023C78.6542 57.6023 78.6616 57.6023 78.669 57.6023C78.6763 57.6023 78.6837 57.6023 78.6911 57.6023C78.6985 57.6023 78.7059 57.6023 78.7133 57.6023C78.7207 57.6023 78.7281 57.6023 78.7355 57.6023C78.7428 57.6023 78.7502 57.6023 78.7576 57.6023C78.765 57.6023 78.7724 57.6023 78.7798 57.6023C78.7872 57.6023 78.7946 57.6023 78.802 57.6023C78.8094 57.6023 78.8168 57.6023 78.8242 57.6023C78.8316 57.6023 78.839 57.6023 78.8464 57.6023C78.8538 57.6023 78.8612 57.6023 78.8686 57.6023C78.876 57.6023 78.8834 57.6023 78.8908 57.6023C78.8982 57.6023 78.9057 57.6023 78.9131 57.6023C78.9205 57.6023 78.9279 57.6023 78.9353 57.6023C78.9427 57.6023 78.9501 57.6023 78.9575 57.6023C78.965 57.6023 78.9724 57.6023 78.9798 57.6023C78.9872 57.6023 78.9946 57.6023 79.002 57.6023C79.0095 57.6023 79.0169 57.6023 79.0243 57.6023C79.0317 57.6023 79.0391 57.6023 79.0466 57.6023C79.054 57.6023 79.0614 57.6023 79.0688 57.6023C79.0763 57.6023 79.0837 57.6023 79.0911 57.6023C79.0985 57.6023 79.106 57.6023 79.1134 57.6023C79.1208 57.6023 79.1283 57.6023 79.1357 57.6023C79.1431 57.6023 79.1506 57.6023 79.158 57.6023C79.1654 57.6023 79.1729 57.6023 79.1803 57.6023C79.1877 57.6023 79.1952 57.6023 79.2026 57.6023C79.2101 57.6023 79.2175 57.6023 79.2249 57.6023C79.2324 57.6023 79.2398 57.6023 79.2473 57.6023C79.2547 57.6023 79.2621 57.6023 79.2696 57.6023C79.277 57.6023 79.2845 57.6023 79.2919 57.6023C79.2994 57.6023 79.3068 57.6023 79.3143 57.6023C79.3217 57.6023 79.3292 57.6023 79.3366 57.6023C79.3441 57.6023 79.3515 57.6023 79.359 57.6023C79.3665 57.6023 79.3739 57.6023 79.3814 57.6023C79.3888 57.6023 79.3963 57.6023 79.4037 57.6023C79.4112 57.6023 79.4187 57.6023 79.4261 57.6023C79.4336 57.6023 79.441 57.6023 79.4485 57.6023C79.456 57.6023 79.4634 57.6023 79.4709 57.6023C79.4784 57.6023 79.4858 57.6023 79.4933 57.6023C79.5008 57.6023 79.5082 57.6023 79.5157 57.6023C79.5232 57.6023 79.5307 57.6023 79.5381 57.6023C79.5456 57.6023 79.5531 57.6023 79.5606 57.6023C79.568 57.6023 79.5755 57.6023 79.583 57.6023C79.5905 57.6023 79.5979 57.6023 79.6054 57.6023C79.6129 57.6023 79.6204 57.6023 79.6279 57.6023C79.6353 57.6023 79.6428 57.6023 79.6503 57.6023C79.6578 57.6023 79.6653 57.6023 79.6728 57.6023C79.6803 57.6023 79.6877 57.6023 79.6952 57.6023C79.7027 57.6023 79.7102 57.6023 79.7177 57.6023C79.7252 57.6023 79.7327 57.6023 79.7402 57.6023C79.7477 57.6023 79.7552 57.6023 79.7627 57.6023C79.7702 57.6023 79.7777 57.6023 79.7852 57.6023C79.7927 57.6023 79.8002 57.6023 79.8077 57.6023C79.8152 57.6023 79.8227 57.6023 79.8302 57.6023C79.8377 57.6023 79.8452 57.6023 79.8527 57.6023C79.8602 57.6023 79.8677 57.6023 79.8752 57.6023C79.8827 57.6023 79.8902 57.6023 79.8977 57.6023C79.9052 57.6023 79.9127 57.6023 79.9202 57.6023C79.9278 57.6023 79.9353 57.6023 79.9428 57.6023C79.9503 57.6023 79.9578 57.6023 79.9653 57.6023C79.9728 57.6023 79.9804 57.6023 79.9879 57.6023C79.9954 57.6023 80.0029 57.6023 80.0104 57.6023C80.018 57.6023 80.0255 57.6023 80.033 57.6023C80.0405 57.6023 80.0481 57.6023 80.0556 57.6023C80.0631 57.6023 80.0706 57.6023 80.0782 57.6023C80.0857 57.6023 80.0932 57.6023 80.1007 57.6023C80.1083 57.6023 80.1158 57.6023 80.1233 57.6023C80.1309 57.6023 80.1384 57.6023 80.1459 57.6023C80.1535 57.6023 80.161 57.6023 80.1685 57.6023C80.1761 57.6023 80.1836 57.6023 80.1912 57.6023C80.1987 57.6023 80.2062 57.6023 80.2138 57.6023C80.2213 57.6023 80.2289 57.6023 80.2364 57.6023C80.2439 57.6023 80.2515 57.6023 80.259 57.6023C80.2666 57.6023 80.2741 57.6023 80.2817 57.6023C80.2892 57.6023 80.2968 57.6023 80.3043 57.6023C80.3119 57.6023 80.3194 57.6023 80.327 57.6023C80.3345 57.6023 80.3421 57.6023 80.3496 57.6023C80.3572 57.6023 80.3647 57.6023 80.3723 57.6023C80.3799 57.6023 80.3874 57.6023 80.395 57.6023C80.4025 57.6023 80.4101 57.6023 80.4177 57.6023C80.4252 57.6023 80.4328 57.6023 80.4404 57.6023C80.4479 57.6023 80.4555 57.6023 80.463 57.6023C80.4706 57.6023 80.4782 57.6023 80.4857 57.6023C80.4933 57.6023 80.5009 57.6023 80.5085 57.6023C80.516 57.6023 80.5236 57.6023 80.5312 57.6023C80.5387 57.6023 80.5463 57.6023 80.5539 57.6023C80.5615 57.6023 80.569 57.6023 80.5766 57.6023C80.5842 57.6023 80.5918 57.6023 80.5994 57.6023C80.6069 57.6023 80.6145 57.6023 80.6221 57.6023C80.6297 57.6023 80.6373 57.6023 80.6449 57.6023C80.6524 57.6023 80.66 57.6023 80.6676 57.6023C80.6752 57.6023 80.6828 57.6023 80.6904 57.6023C80.698 57.6023 80.7056 57.6023 80.7131 57.6023C80.7207 57.6023 80.7283 57.6023 80.7359 57.6023C80.7435 57.6023 80.7511 57.6023 80.7587 57.6023C80.7663 57.6023 80.7739 57.6023 80.7815 57.6023C80.7891 57.6023 80.7967 57.6023 80.8043 57.6023C80.8119 57.6023 80.8195 57.6023 80.8271 57.6023C80.8347 57.6023 80.8423 57.6023 80.8499 57.6023C80.8575 57.6023 80.8651 57.6023 80.8727 57.6023C80.8803 57.6023 80.8879 57.6023 80.8955 57.6023C80.9032 57.6023 80.9108 57.6023 80.9184 57.6023C80.926 57.6023 80.9336 57.6023 80.9412 57.6023C80.9488 57.6023 80.9564 57.6023 80.9641 57.6023C80.9717 57.6023 80.9793 57.6023 80.9869 57.6023C80.9945 57.6023 81.0022 57.6023 81.0098 57.6023C81.0174 57.6023 81.025 57.6023 81.0326 57.6023C81.0403 57.6023 81.0479 57.6023 81.0555 57.6023C81.0631 57.6023 81.0708 57.6023 81.0784 57.6023C81.086 57.6023 81.0936 57.6023 81.1013 57.6023C81.1089 57.6023 81.1165 57.6023 81.1242 57.6023C81.1318 57.6023 81.1394 57.6023 81.1471 57.6023C81.1547 57.6023 81.1623 57.6023 81.17 57.6023C81.1776 57.6023 81.1852 57.6023 81.1929 57.6023C81.2005 57.6023 81.2082 57.6023 81.2158 57.6023C81.2234 57.6023 81.2311 57.6023 81.2387 57.6023C81.2464 57.6023 81.254 57.6023 81.2617 57.6023C81.2693 57.6023 81.277 57.6023 81.2846 57.6023C81.2923 57.6023 81.2999 57.6023 81.3076 57.6023C81.3152 57.6023 81.3229 57.6023 81.3305 57.6023C81.3382 57.6023 81.3458 57.6023 81.3535 57.6023C81.3611 57.6023 81.3688 57.6023 81.3764 57.6023C81.3841 57.6023 81.3917 57.6023 81.3994 57.6023C81.4071 57.6023 81.4147 57.6023 81.4224 57.6023C81.43 57.6023 81.4377 57.6023 81.4454 57.6023C81.453 57.6023 81.4607 57.6023 81.4684 57.6023C81.476 57.6023 81.4837 57.6023 81.4914 57.6023C81.499 57.6023 81.5067 57.6023 81.5144 57.6023C81.5221 57.6023 81.5297 57.6023 81.5374 57.6023C81.5451 57.6023 81.5527 57.6023 81.5604 57.6023C81.5681 57.6023 81.5758 57.6023 81.5834 57.6023C81.5911 57.6023 81.5988 57.6023 81.6065 57.6023C81.6142 57.6023 81.6218 57.6023 81.6295 57.6023C81.6372 57.6023 81.6449 57.6023 81.6526 57.6023C81.6603 57.6023 81.6679 57.6023 81.6756 57.6023C81.6833 57.6023 81.691 57.6023 81.6987 57.6023C81.7064 57.6023 81.7141 57.6023 81.7218 57.6023C81.7295 57.6023 81.7371 57.6023 81.7448 57.6023C81.7525 57.6023 81.7602 57.6023 81.7679 57.6023C81.7756 57.6023 81.7833 57.6023 81.791 57.6023C81.7987 57.6023 81.8064 57.6023 81.8141 57.6023C81.8218 57.6023 81.8295 57.6023 81.8372 57.6023C81.8449 57.6023 81.8526 57.6023 81.8603 57.6023C81.868 57.6023 81.8757 57.6023 81.8834 57.6023C81.8911 57.6023 81.8989 57.6023 81.9066 57.6023C81.9143 57.6023 81.922 57.6023 81.9297 57.6023C81.9374 57.6023 81.9451 57.6023 81.9528 57.6023C81.9605 57.6023 81.9683 57.6023 81.976 57.6023C81.9837 57.6023 81.9914 57.6023 81.9991 57.6023C82.0068 57.6023 82.0146 57.6023 82.0223 57.6023C82.03 57.6023 82.0377 57.6023 82.0455 57.6023C82.0532 57.6023 82.0609 57.6023 82.0686 57.6023C82.0763 57.6023 82.0841 57.6023 82.0918 57.6023C82.0995 57.6023 82.1073 57.6023 82.115 57.6023C82.1227 57.6023 82.1304 57.6023 82.1382 57.6023C82.1459 57.6023 82.1536 57.6023 82.1614 57.6023C82.1691 57.6023 82.1768 57.6023 82.1846 57.6023C82.1923 57.6023 82.2001 57.6023 82.2078 57.6023C82.2155 57.6023 82.2233 57.6023 82.231 57.6023C82.2388 57.6023 82.2465 57.6023 82.2542 57.6023C82.262 57.6023 82.2697 57.6023 82.2775 57.6023C82.2852 57.6023 82.293 57.6023 82.3007 57.6023C82.3085 57.6023 82.3162 57.6023 82.324 57.6023C82.3317 57.6023 82.3395 57.6023 82.3472 57.6023C82.355 57.6023 82.3627 57.6023 82.3705 57.6023C82.3782 57.6023 82.386 57.6023 82.3937 57.6023C82.4015 57.6023 82.4093 57.6023 82.417 57.6023C82.4248 57.6023 82.4325 57.6023 82.4403 57.6023C82.4481 57.6023 82.4558 57.6023 82.4636 57.6023C82.4714 57.6023 82.4791 57.6023 82.4869 57.6023C82.4946 57.6023 82.5024 57.6023 82.5102 57.6023C82.518 57.6023 82.5257 57.6023 82.5335 57.6023C82.5413 57.6023 82.549 57.6023 82.5568 57.6023C82.5646 57.6023 82.5724 57.6023 82.5801 57.6023C82.5879 57.6023 82.5957 57.6023 82.6035 57.6023C82.6112 57.6023 82.619 57.6023 82.6268 57.6023C82.6346 57.6023 82.6424 57.6023 82.6501 57.6023C82.6579 57.6023 82.6657 57.6023 82.6735 57.6023C82.6813 57.6023 82.6891 57.6023 82.6968 57.6023C82.7046 57.6023 82.7124 57.6023 82.7202 57.6023C82.728 57.6023 82.7358 57.6023 82.7436 57.6023C82.7514 57.6023 82.7592 57.6023 82.7669 57.6023C82.7747 57.6023 82.7825 57.6023 82.7903 57.6023C82.7981 57.6023 82.8059 57.6023 82.8137 57.6023C82.8215 57.6023 82.8293 57.6023 82.8371 57.6023C82.8449 57.6023 82.8527 57.6023 82.8605 57.6023C82.8683 57.6023 82.8761 57.6023 82.8839 57.6023C82.8917 57.6023 82.8995 57.6023 82.9073 57.6023C82.9152 57.6023 82.923 57.6023 82.9308 57.6023C82.9386 57.6023 82.9464 57.6023 82.9542 57.6023C82.962 57.6023 82.9698 57.6023 82.9776 57.6023C82.9855 57.6023 82.9933 57.6023 83.0011 57.6023C83.0089 57.6023 83.0167 57.6023 83.0245 57.6023C83.0324 57.6023 83.0402 57.6023 83.048 57.6023C83.0558 57.6023 83.0636 57.6023 83.0715 57.6023C83.0793 57.6023 83.0871 57.6023 83.0949 57.6023C83.1028 57.6023 83.1106 57.6023 83.1184 57.6023C83.1262 57.6023 83.1341 57.6023 83.1419 57.6023C83.1497 57.6023 83.1576 57.6023 83.1654 57.6023C83.1732 57.6023 83.181 57.6023 83.1889 57.6023C83.1967 57.6023 83.2045 57.6023 83.2124 57.6023C83.2202 57.6023 83.2281 57.6023 83.2359 57.6023C83.2437 57.6023 83.2516 57.6023 83.2594 57.6023C83.2673 57.6023 83.2751 57.6023 83.2829 57.6023C83.2908 57.6023 83.2986 57.6023 83.3065 57.6023C83.3143 57.6023 83.3222 57.6023 83.33 57.6023C83.3379 57.6023 83.3457 57.6023 83.3536 57.6023C83.3614 57.6023 83.3693 57.6023 83.3771 57.6023C83.385 57.6023 83.3928 57.6023 83.4007 57.6023C83.4085 57.6023 83.4164 57.6023 83.4242 57.6023C83.4321 57.6023 83.44 57.6023 83.4478 57.6023C83.4557 57.6023 83.4635 57.6023 83.4714 57.6023C83.4793 57.6023 83.4871 57.6023 83.495 57.6023C83.5028 57.6023 83.5107 57.6023 83.5186 57.6023C83.5264 57.6023 83.5343 57.6023 83.5422 57.6023C83.55 57.6023 83.5579 57.6023 83.5658 57.6023C83.5737 57.6023 83.5815 57.6023 83.5894 57.6023C83.5973 57.6023 83.6051 57.6023 83.613 57.6023C83.6209 57.6023 83.6288 57.6023 83.6367 57.6023C83.6445 57.6023 83.6524 57.6023 83.6603 57.6023C83.6682 57.6023 83.676 57.6023 83.6839 57.6023C83.6918 57.6023 83.6997 57.6023 83.7076 57.6023C83.7155 57.6023 83.7233 57.6023 83.7312 57.6023C83.7391 57.6023 83.747 57.6023 83.7549 57.6023C83.7628 57.6023 83.7707 57.6023 83.7786 57.6023C83.7865 57.6023 83.7943 57.6023 83.8022 57.6023C83.8101 57.6023 83.818 57.6023 83.8259 57.6023C83.8338 57.6023 83.8417 57.6023 83.8496 57.6023C83.8575 57.6023 83.8654 57.6023 83.8733 57.6023C83.8812 57.6023 83.8891 57.6023 83.897 57.6023C83.9049 57.6023 83.9128 57.6023 83.9207 57.6023C83.9286 57.6023 83.9365 57.6023 83.9444 57.6023C83.9523 57.6023 83.9602 57.6023 83.9682 57.6023C83.9761 57.6023 83.984 57.6023 83.9919 57.6023C83.9998 57.6023 84.0077 57.6023 84.0156 57.6023C84.0235 57.6023 84.0315 57.6023 84.0394 57.6023C84.0473 57.6023 84.0552 57.6023 84.0631 57.6023C84.071 57.6023 84.079 57.6023 84.0869 57.6023C84.0948 57.6023 84.1027 57.6023 84.1106 57.6023C84.1186 57.6023 84.1265 57.6023 84.1344 57.6023C84.1423 57.6023 84.1503 57.6023 84.1582 57.6023C84.1661 57.6023 84.174 57.6023 84.182 57.6023C84.1899 57.6023 84.1978 57.6023 84.2058 57.6023C84.2137 57.6023 84.2216 57.6023 84.2296 57.6023C84.2375 57.6023 84.2454 57.6023 84.2534 57.6023C84.2613 57.6023 84.2692 57.6023 84.2772 57.6023C84.2851 57.6023 84.2931 57.6023 84.301 57.6023C84.3089 57.6023 84.3169 57.6023 84.3248 57.6023C84.3328 57.6023 84.3407 57.6023 84.3487 57.6023C84.3566 57.6023 84.3646 57.6023 84.3725 57.6023C84.3804 57.6023 84.3884 57.6023 84.3963 57.6023C84.4043 57.6023 84.4122 57.6023 84.4202 57.6023C84.4282 57.6023 84.4361 57.6023 84.4441 57.6023C84.452 57.6023 84.46 57.6023 84.4679 57.6023C84.4759 57.6023 84.4838 57.6023 84.4918 57.6023C84.4998 57.6023 84.5077 57.6023 84.5157 57.6023C84.5236 57.6023 84.5316 57.6023 84.5396 57.6023C84.5475 57.6023 84.5555 57.6023 84.5635 57.6023C84.5714 57.6023 84.5794 57.6023 84.5874 57.6023C84.5953 57.6023 84.6033 57.6023 84.6113 57.6023C84.6192 57.6023 84.6272 57.6023 84.6352 57.6023C84.6432 57.6023 84.6511 57.6023 84.6591 57.6023C84.6671 57.6023 84.6751 57.6023 84.683 57.6023C84.691 57.6023 84.699 57.6023 84.707 57.6023C84.7149 57.6023 84.7229 57.6023 84.7309 57.6023C84.7389 57.6023 84.7469 57.6023 84.7549 57.6023C84.7628 57.6023 84.7708 57.6023 84.7788 57.6023C84.7868 57.6023 84.7948 57.6023 84.8028 57.6023C84.8108 57.6023 84.8187 57.6023 84.8267 57.6023C84.8347 57.6023 84.8427 57.6023 84.8507 57.6023C84.8587 57.6023 84.8667 57.6023 84.8747 57.6023C84.8827 57.6023 84.8907 57.6023 84.8987 57.6023C84.9067 57.6023 84.9147 57.6023 84.9227 57.6023C84.9307 57.6023 84.9387 57.6023 84.9467 57.6023C84.9547 57.6023 84.9627 57.6023 84.9707 57.6023C84.9787 57.6023 84.9867 57.6023 84.9947 57.6023C85.0027 57.6023 85.0107 57.6023 85.0187 57.6023C85.0267 57.6023 85.0348 57.6023 85.0428 57.6023C85.0508 57.6023 85.0588 57.6023 85.0668 57.6023C85.0748 57.6023 85.0828 57.6023 85.0908 57.6023C85.0989 57.6023 85.1069 57.6023 85.1149 57.6023C85.1229 57.6023 85.1309 57.6023 85.139 57.6023C85.147 57.6023 85.155 57.6023 85.163 57.6023C85.171 57.6023 85.1791 57.6023 85.1871 57.6023C85.1951 57.6023 85.2031 57.6023 85.2112 57.6023C85.2192 57.6023 85.2272 57.6023 85.2352 57.6023C85.2433 57.6023 85.2513 57.6023 85.2593 57.6023C85.2674 57.6023 85.2754 57.6023 85.2834 57.6023C85.2915 57.6023 85.2995 57.6023 85.3075 57.6023C85.3156 57.6023 85.3236 57.6023 85.3317 57.6023C85.3397 57.6023 85.3477 57.6023 85.3558 57.6023C85.3638 57.6023 85.3719 57.6023 85.3799 57.6023C85.3879 57.6023 85.396 57.6023 85.404 57.6023C85.4121 57.6023 85.4201 57.6023 85.4282 57.6023C85.4362 57.6023 85.4443 57.6023 85.4523 57.6023C85.4604 57.6023 85.4684 57.6023 85.4765 57.6023C85.4845 57.6023 85.4926 57.6023 85.5006 57.6023C85.5087 57.6023 85.5167 57.6023 85.5248 57.6023C85.5329 57.6023 85.5409 57.6023 85.549 57.6023C85.557 57.6023 85.5651 57.6023 85.5731 57.6023C85.5812 57.6023 85.5893 57.6023 85.5973 57.6023C85.6054 57.6023 85.6135 57.6023 85.6215 57.6023C85.6296 57.6023 85.6377 57.6023 85.6457 57.6023C85.6538 57.6023 85.6619 57.6023 85.6699 57.6023C85.678 57.6023 85.6861 57.6023 85.6941 57.6023C85.7022 57.6023 85.7103 57.6023 85.7184 57.6023C85.7264 57.6023 85.7345 57.6023 85.7426 57.6023C85.7507 57.6023 85.7588 57.6023 85.7668 57.6023C85.7749 57.6023 85.783 57.6023 85.7911 57.6023C85.7992 57.6023 85.8072 57.6023 85.8153 57.6023C85.8234 57.6023 85.8315 57.6023 85.8396 57.6023C85.8477 57.6023 85.8557 57.6023 85.8638 57.6023C85.8719 57.6023 85.88 57.6023 85.8881 57.6023C85.8962 57.6023 85.9043 57.6023 85.9124 57.6023C85.9205 57.6023 85.9286 57.6023 85.9367 57.6023C85.9448 57.6023 85.9529 57.6023 85.9609 57.6023C85.969 57.6023 85.9771 57.6023 85.9852 57.6023C85.9933 57.6023 86.0014 57.6023 86.0095 57.6023C86.0176 57.6023 86.0258 57.6023 86.0339 57.6023C86.042 57.6023 86.0501 57.6023 86.0582 57.6023C86.0663 57.6023 86.0744 57.6023 86.0825 57.6023C86.0906 57.6023 86.0987 57.6023 86.1068 57.6023C86.1149 57.6023 86.123 57.6023 86.1312 57.6023C86.1393 57.6023 86.1474 57.6023 86.1555 57.6023C86.1636 57.6023 86.1717 57.6023 86.1799 57.6023C86.188 57.6023 86.1961 57.6023 86.2042 57.6023C86.2123 57.6023 86.2205 57.6023 86.2286 57.6023C86.2367 57.6023 86.2448 57.6023 86.2529 57.6023C86.2611 57.6023 86.2692 57.6023 86.2773 57.6023C86.2854 57.6023 86.2936 57.6023 86.3017 57.6023C86.3098 57.6023 86.318 57.6023 86.3261 57.6023C86.3342 57.6023 86.3424 57.6023 86.3505 57.6023C86.3586 57.6023 86.3668 57.6023 86.3749 57.6023C86.383 57.6023 86.3912 57.6023 86.3993 57.6023C86.4074 57.6023 86.4156 57.6023 86.4237 57.6023C86.4319 57.6023 86.44 57.6023 86.4482 57.6023C86.4563 57.6023 86.4644 57.6023 86.4726 57.6023C86.4807 57.6023 86.4889 57.6023 86.497 57.6023C86.5052 57.6023 86.5133 57.6023 86.5215 57.6023C86.5296 57.6023 86.5378 57.6023 86.5459 57.6023C86.5541 57.6023 86.5622 57.6023 86.5704 57.6023C86.5785 57.6023 86.5867 57.6023 86.5948 57.6023C86.603 57.6023 86.6112 57.6023 86.6193 57.6023C86.6275 57.6023 86.6356 57.6023 86.6438 57.6023C86.652 57.6023 86.6601 57.6023 86.6683 57.6023C86.6764 57.6023 86.6846 57.6023 86.6928 57.6023C86.7009 57.6023 86.7091 57.6023 86.7173 57.6023C86.7254 57.6023 86.7336 57.6023 86.7418 57.6023C86.75 57.6023 86.7581 57.6023 86.7663 57.6023C86.7745 57.6023 86.7826 57.6023 86.7908 57.6023C86.799 57.6023 86.8072 57.6023 86.8153 57.6023C86.8235 57.6023 86.8317 57.6023 86.8399 57.6023C86.8481 57.6023 86.8562 57.6023 86.8644 57.6023C86.8726 57.6023 86.8808 57.6023 86.889 57.6023C86.8972 57.6023 86.9053 57.6023 86.9135 57.6023C86.9217 57.6023 86.9299 57.6023 86.9381 57.6023C86.9463 57.6023 86.9545 57.6023 86.9627 57.6023C86.9708 57.6023 86.979 57.6023 86.9872 57.6023C86.9954 57.6023 87.0036 57.6023 87.0118 57.6023C87.02 57.6023 87.0282 57.6023 87.0364 57.6023C87.0446 57.6023 87.0528 57.6023 87.061 57.6023C87.0692 57.6023 87.0774 57.6023 87.0856 57.6023C87.0938 57.6023 87.102 57.6023 87.1102 57.6023C87.1184 57.6023 87.1266 57.6023 87.1348 57.6023C87.143 57.6023 87.1512 57.6023 87.1594 57.6023C87.1677 57.6023 87.1759 57.6023 87.1841 57.6023C87.1923 57.6023 87.2005 57.6023 87.2087 57.6023C87.2169 57.6023 87.2251 57.6023 87.2333 57.6023C87.2416 57.6023 87.2498 57.6023 87.258 57.6023C87.2662 57.6023 87.2744 57.6023 87.2827 57.6023C87.2909 57.6023 87.2991 57.6023 87.3073 57.6023C87.3155 57.6023 87.3238 57.6023 87.332 57.6023C87.3402 57.6023 87.3484 57.6023 87.3567 57.6023C87.3649 57.6023 87.3731 57.6023 87.3813 57.6023C87.3896 57.6023 87.3978 57.6023 87.406 57.6023C87.4143 57.6023 87.4225 57.6023 87.4307 57.6023C87.439 57.6023 87.4472 57.6023 87.4554 57.6023C87.4637 57.6023 87.4719 57.6023 87.4802 57.6023C87.4884 57.6023 87.4966 57.6023 87.5049 57.6023C87.5131 57.6023 87.5214 57.6023 87.5296 57.6023C87.5378 57.6023 87.5461 57.6023 87.5543 57.6023C87.5626 57.6023 87.5708 57.6023 87.5791 57.6023C87.5873 57.6023 87.5956 57.6023 87.6038 57.6023C87.6121 57.6023 87.6203 57.6023 87.6286 57.6023C87.6368 57.6023 87.6451 57.6023 87.6533 57.6023C87.6616 57.6023 87.6698 57.6023 87.6781 57.6023C87.6863 57.6023 87.6946 57.6023 87.7029 57.6023C87.7111 57.6023 87.7194 57.6023 87.7276 57.6023C87.7359 57.6023 87.7442 57.6023 87.7524 57.6023C87.7607 57.6023 87.769 57.6023 87.7772 57.6023C87.7855 57.6023 87.7937 57.6023 87.802 57.6023C87.8103 57.6023 87.8186 57.6023 87.8268 57.6023C87.8351 57.6023 87.8434 57.6023 87.8516 57.6023C87.8599 57.6023 87.8682 57.6023 87.8765 57.6023C87.8847 57.6023 87.893 57.6023 87.9013 57.6023C87.9096 57.6023 87.9178 57.6023 87.9261 57.6023C87.9344 57.6023 87.9427 57.6023 87.951 57.6023C87.9592 57.6023 87.9675 57.6023 87.9758 57.6023C87.9841 57.6023 87.9924 57.6023 88.0007 57.6023C88.0089 57.6023 88.0172 57.6023 88.0255 57.6023C88.0338 57.6023 88.0421 57.6023 88.0504 57.6023C88.0587 57.6023 88.067 57.6023 88.0753 57.6023C88.0836 57.6023 88.0918 57.6023 88.1001 57.6023C88.1084 57.6023 88.1167 57.6023 88.125 57.6023C88.1333 57.6023 88.1416 57.6023 88.1499 57.6023C88.1582 57.6023 88.1665 57.6023 88.1748 57.6023C88.1831 57.6023 88.1914 57.6023 88.1997 57.6023C88.208 57.6023 88.2163 57.6023 88.2247 57.6023C88.233 57.6023 88.2413 57.6023 88.2496 57.6023C88.2579 57.6023 88.2662 57.6023 88.2745 57.6023C88.2828 57.6023 88.2911 57.6023 88.2994 57.6023C88.3078 57.6023 88.3161 57.6023 88.3244 57.6023C88.3327 57.6023 88.341 57.6023 88.3493 57.6023C88.3576 57.6023 88.366 57.6023 88.3743 57.6023C88.3826 57.6023 88.3909 57.6023 88.3992 57.6023C88.4076 57.6023 88.4159 57.6023 88.4242 57.6023C88.4325 57.6023 88.4409 57.6023 88.4492 57.6023C88.4575 57.6023 88.4658 57.6023 88.4742 57.6023C88.4825 57.6023 88.4908 57.6023 88.4992 57.6023C88.5075 57.6023 88.5158 57.6023 88.5242 57.6023C88.5325 57.6023 88.5408 57.6023 88.5492 57.6023C88.5575 57.6023 88.5658 57.6023 88.5742 57.6023C88.5825 57.6023 88.5909 57.6023 88.5992 57.6023C88.6075 57.6023 88.6159 57.6023 88.6242 57.6023C88.6326 57.6023 88.6409 57.6023 88.6493 57.6023C88.6576 57.6023 88.6659 57.6023 88.6743 57.6023C88.6826 57.6023 88.691 57.6023 88.6993 57.6023C88.7077 57.6023 88.716 57.6023 88.7244 57.6023C88.7327 57.6023 88.7411 57.6023 88.7494 57.6023C88.7578 57.6023 88.7662 57.6023 88.7745 57.6023C88.7829 57.6023 88.7912 57.6023 88.7996 57.6023C88.8079 57.6023 88.8163 57.6023 88.8247 57.6023C88.833 57.6023 88.8414 57.6023 88.8497 57.6023C88.8581 57.6023 88.8665 57.6023 88.8748 57.6023C88.8832 57.6023 88.8916 57.6023 88.8999 57.6023C88.9083 57.6023 88.9167 57.6023 88.925 57.6023C88.9334 57.6023 88.9418 57.6023 88.9502 57.6023C88.9585 57.6023 88.9669 57.6023 88.9753 57.6023C88.9837 57.6023 88.992 57.6023 89.0004 57.6023C89.0088 57.6023 89.0172 57.6023 89.0255 57.6023C89.0339 57.6023 89.0423 57.6023 89.0507 57.6023C89.0591 57.6023 89.0674 57.6023 89.0758 57.6023C89.0842 57.6023 89.0926 57.6023 89.101 57.6023C89.1094 57.6023 89.1178 57.6023 89.1261 57.6023C89.1345 57.6023 89.1429 57.6023 89.1513 57.6023C89.1597 57.6023 89.1681 57.6023 89.1765 57.6023C89.1849 57.6023 89.1933 57.6023 89.2017 57.6023C89.2101 57.6023 89.2185 57.6023 89.2268 57.6023C89.2352 57.6023 89.2436 57.6023 89.252 57.6023C89.2604 57.6023 89.2688 57.6023 89.2772 57.6023C89.2856 57.6023 89.2941 57.6023 89.3025 57.6023C89.3109 57.6023 89.3193 57.6023 89.3277 57.6023C89.3361 57.6023 89.3445 57.6023 89.3529 57.6023C89.3613 57.6023 89.3697 57.6023 89.3781 57.6023C89.3865 57.6023 89.3949 57.6023 89.4034 57.6023C89.4118 57.6023 89.4202 57.6023 89.4286 57.6023C89.437 57.6023 89.4454 57.6023 89.4538 57.6023C89.4623 57.6023 89.4707 57.6023 89.4791 57.6023C89.4875 57.6023 89.4959 57.6023 89.5044 57.6023C89.5128 57.6023 89.5212 57.6023 89.5296 57.6023C89.5381 57.6023 89.5465 57.6023 89.5549 57.6023C89.5633 57.6023 89.5718 57.6023 89.5802 57.6023C89.5886 57.6023 89.5971 57.6023 89.6055 57.6023C89.6139 57.6023 89.6223 57.6023 89.6308 57.6023C89.6392 57.6023 89.6476 57.6023 89.6561 57.6023C89.6645 57.6023 89.673 57.6023 89.6814 57.6023C89.6898 57.6023 89.6983 57.6023 89.7067 57.6023C89.7152 57.6023 89.7236 57.6023 89.732 57.6023C89.7405 57.6023 89.7489 57.6023 89.7574 57.6023C89.7658 57.6023 89.7743 57.6023 89.7827 57.6023C89.7912 57.6023 89.7996 57.6023 89.808 57.6023C89.8165 57.6023 89.8249 57.6023 89.8334 57.6023C89.8419 57.6023 89.8503 57.6023 89.8588 57.6023C89.8672 57.6023 89.8757 57.6023 89.8841 57.6023C89.8926 57.6023 89.901 57.6023 89.9095 57.6023C89.918 57.6023 89.9264 57.6023 89.9349 57.6023C89.9433 57.6023 89.9518 57.6023 89.9603 57.6023C89.9687 57.6023 89.9772 57.6023 89.9856 57.6023C89.9941 57.6023 90.0026 57.6023 90.011 57.6023C90.0195 57.6023 90.028 57.6023 90.0365 57.6023C90.0449 57.6023 90.0534 57.6023 90.0619 57.6023C90.0703 57.6023 90.0788 57.6023 90.0873 57.6023C90.0958 57.6023 90.1042 57.6023 90.1127 57.6023C90.1212 57.6023 90.1297 57.6023 90.1381 57.6023C90.1466 57.6023 90.1551 57.6023 90.1636 57.6023C90.1721 57.6023 90.1805 57.6023 90.189 57.6023C90.1975 57.6023 90.206 57.6023 90.2145 57.6023C90.223 57.6023 90.2315 57.6023 90.2399 57.6023C90.2484 57.6023 90.2569 57.6023 90.2654 57.6023C90.2739 57.6023 90.2824 57.6023 90.2909 57.6023C90.2994 57.6023 90.3079 57.6023 90.3164 57.6023C90.3249 57.6023 90.3334 57.6023 90.3419 57.6023C90.3504 57.6023 90.3588 57.6023 90.3673 57.6023C90.3758 57.6023 90.3843 57.6023 90.3928 57.6023V55.216C90.3843 55.216 90.3758 55.216 90.3673 55.216C90.3588 55.216 90.3504 55.216 90.3419 55.216C90.3334 55.216 90.3249 55.216 90.3164 55.216C90.3079 55.216 90.2994 55.216 90.2909 55.216C90.2824 55.216 90.2739 55.216 90.2654 55.216C90.2569 55.216 90.2484 55.216 90.2399 55.216C90.2315 55.216 90.223 55.216 90.2145 55.216C90.206 55.216 90.1975 55.216 90.189 55.216C90.1805 55.216 90.1721 55.216 90.1636 55.216C90.1551 55.216 90.1466 55.216 90.1381 55.216C90.1297 55.216 90.1212 55.216 90.1127 55.216C90.1042 55.216 90.0958 55.216 90.0873 55.216C90.0788 55.216 90.0703 55.216 90.0619 55.216C90.0534 55.216 90.0449 55.216 90.0365 55.216C90.028 55.216 90.0195 55.216 90.011 55.216C90.0026 55.216 89.9941 55.216 89.9856 55.216C89.9772 55.216 89.9687 55.216 89.9603 55.216C89.9518 55.216 89.9433 55.216 89.9349 55.216C89.9264 55.216 89.918 55.216 89.9095 55.216C89.901 55.216 89.8926 55.216 89.8841 55.216C89.8757 55.216 89.8672 55.216 89.8588 55.216C89.8503 55.216 89.8419 55.216 89.8334 55.216C89.8249 55.216 89.8165 55.216 89.808 55.216C89.7996 55.216 89.7912 55.216 89.7827 55.216C89.7743 55.216 89.7658 55.216 89.7574 55.216C89.7489 55.216 89.7405 55.216 89.732 55.216C89.7236 55.216 89.7152 55.216 89.7067 55.216C89.6983 55.216 89.6898 55.216 89.6814 55.216C89.673 55.216 89.6645 55.216 89.6561 55.216C89.6476 55.216 89.6392 55.216 89.6308 55.216C89.6223 55.216 89.6139 55.216 89.6055 55.216C89.5971 55.216 89.5886 55.216 89.5802 55.216C89.5718 55.216 89.5633 55.216 89.5549 55.216C89.5465 55.216 89.5381 55.216 89.5296 55.216C89.5212 55.216 89.5128 55.216 89.5044 55.216C89.4959 55.216 89.4875 55.216 89.4791 55.216C89.4707 55.216 89.4623 55.216 89.4538 55.216C89.4454 55.216 89.437 55.216 89.4286 55.216C89.4202 55.216 89.4118 55.216 89.4034 55.216C89.3949 55.216 89.3865 55.216 89.3781 55.216C89.3697 55.216 89.3613 55.216 89.3529 55.216C89.3445 55.216 89.3361 55.216 89.3277 55.216C89.3193 55.216 89.3109 55.216 89.3025 55.216C89.2941 55.216 89.2856 55.216 89.2772 55.216C89.2688 55.216 89.2604 55.216 89.252 55.216C89.2436 55.216 89.2352 55.216 89.2268 55.216C89.2185 55.216 89.2101 55.216 89.2017 55.216C89.1933 55.216 89.1849 55.216 89.1765 55.216C89.1681 55.216 89.1597 55.216 89.1513 55.216C89.1429 55.216 89.1345 55.216 89.1261 55.216C89.1178 55.216 89.1094 55.216 89.101 55.216C89.0926 55.216 89.0842 55.216 89.0758 55.216C89.0674 55.216 89.0591 55.216 89.0507 55.216C89.0423 55.216 89.0339 55.216 89.0255 55.216C89.0172 55.216 89.0088 55.216 89.0004 55.216C88.992 55.216 88.9837 55.216 88.9753 55.216C88.9669 55.216 88.9585 55.216 88.9502 55.216C88.9418 55.216 88.9334 55.216 88.925 55.216C88.9167 55.216 88.9083 55.216 88.8999 55.216C88.8916 55.216 88.8832 55.216 88.8748 55.216C88.8665 55.216 88.8581 55.216 88.8497 55.216C88.8414 55.216 88.833 55.216 88.8247 55.216C88.8163 55.216 88.8079 55.216 88.7996 55.216C88.7912 55.216 88.7829 55.216 88.7745 55.216C88.7662 55.216 88.7578 55.216 88.7494 55.216C88.7411 55.216 88.7327 55.216 88.7244 55.216C88.716 55.216 88.7077 55.216 88.6993 55.216C88.691 55.216 88.6826 55.216 88.6743 55.216C88.6659 55.216 88.6576 55.216 88.6493 55.216C88.6409 55.216 88.6326 55.216 88.6242 55.216C88.6159 55.216 88.6075 55.216 88.5992 55.216C88.5909 55.216 88.5825 55.216 88.5742 55.216C88.5658 55.216 88.5575 55.216 88.5492 55.216C88.5408 55.216 88.5325 55.216 88.5242 55.216C88.5158 55.216 88.5075 55.216 88.4992 55.216C88.4908 55.216 88.4825 55.216 88.4742 55.216C88.4658 55.216 88.4575 55.216 88.4492 55.216C88.4409 55.216 88.4325 55.216 88.4242 55.216C88.4159 55.216 88.4076 55.216 88.3992 55.216C88.3909 55.216 88.3826 55.216 88.3743 55.216C88.366 55.216 88.3576 55.216 88.3493 55.216C88.341 55.216 88.3327 55.216 88.3244 55.216C88.3161 55.216 88.3078 55.216 88.2994 55.216C88.2911 55.216 88.2828 55.216 88.2745 55.216C88.2662 55.216 88.2579 55.216 88.2496 55.216C88.2413 55.216 88.233 55.216 88.2247 55.216C88.2163 55.216 88.208 55.216 88.1997 55.216C88.1914 55.216 88.1831 55.216 88.1748 55.216C88.1665 55.216 88.1582 55.216 88.1499 55.216C88.1416 55.216 88.1333 55.216 88.125 55.216C88.1167 55.216 88.1084 55.216 88.1001 55.216C88.0918 55.216 88.0836 55.216 88.0753 55.216C88.067 55.216 88.0587 55.216 88.0504 55.216C88.0421 55.216 88.0338 55.216 88.0255 55.216C88.0172 55.216 88.0089 55.216 88.0007 55.216C87.9924 55.216 87.9841 55.216 87.9758 55.216C87.9675 55.216 87.9592 55.216 87.951 55.216C87.9427 55.216 87.9344 55.216 87.9261 55.216C87.9178 55.216 87.9096 55.216 87.9013 55.216C87.893 55.216 87.8847 55.216 87.8765 55.216C87.8682 55.216 87.8599 55.216 87.8516 55.216C87.8434 55.216 87.8351 55.216 87.8268 55.216C87.8186 55.216 87.8103 55.216 87.802 55.216C87.7937 55.216 87.7855 55.216 87.7772 55.216C87.769 55.216 87.7607 55.216 87.7524 55.216C87.7442 55.216 87.7359 55.216 87.7276 55.216C87.7194 55.216 87.7111 55.216 87.7029 55.216C87.6946 55.216 87.6863 55.216 87.6781 55.216C87.6698 55.216 87.6616 55.216 87.6533 55.216C87.6451 55.216 87.6368 55.216 87.6286 55.216C87.6203 55.216 87.6121 55.216 87.6038 55.216C87.5956 55.216 87.5873 55.216 87.5791 55.216C87.5708 55.216 87.5626 55.216 87.5543 55.216C87.5461 55.216 87.5378 55.216 87.5296 55.216C87.5214 55.216 87.5131 55.216 87.5049 55.216C87.4966 55.216 87.4884 55.216 87.4802 55.216C87.4719 55.216 87.4637 55.216 87.4554 55.216C87.4472 55.216 87.439 55.216 87.4307 55.216C87.4225 55.216 87.4143 55.216 87.406 55.216C87.3978 55.216 87.3896 55.216 87.3813 55.216C87.3731 55.216 87.3649 55.216 87.3567 55.216C87.3484 55.216 87.3402 55.216 87.332 55.216C87.3238 55.216 87.3155 55.216 87.3073 55.216C87.2991 55.216 87.2909 55.216 87.2827 55.216C87.2744 55.216 87.2662 55.216 87.258 55.216C87.2498 55.216 87.2416 55.216 87.2333 55.216C87.2251 55.216 87.2169 55.216 87.2087 55.216C87.2005 55.216 87.1923 55.216 87.1841 55.216C87.1759 55.216 87.1677 55.216 87.1594 55.216C87.1512 55.216 87.143 55.216 87.1348 55.216C87.1266 55.216 87.1184 55.216 87.1102 55.216C87.102 55.216 87.0938 55.216 87.0856 55.216C87.0774 55.216 87.0692 55.216 87.061 55.216C87.0528 55.216 87.0446 55.216 87.0364 55.216C87.0282 55.216 87.02 55.216 87.0118 55.216C87.0036 55.216 86.9954 55.216 86.9872 55.216C86.979 55.216 86.9708 55.216 86.9627 55.216C86.9545 55.216 86.9463 55.216 86.9381 55.216C86.9299 55.216 86.9217 55.216 86.9135 55.216C86.9053 55.216 86.8972 55.216 86.889 55.216C86.8808 55.216 86.8726 55.216 86.8644 55.216C86.8562 55.216 86.8481 55.216 86.8399 55.216C86.8317 55.216 86.8235 55.216 86.8153 55.216C86.8072 55.216 86.799 55.216 86.7908 55.216C86.7826 55.216 86.7745 55.216 86.7663 55.216C86.7581 55.216 86.75 55.216 86.7418 55.216C86.7336 55.216 86.7254 55.216 86.7173 55.216C86.7091 55.216 86.7009 55.216 86.6928 55.216C86.6846 55.216 86.6764 55.216 86.6683 55.216C86.6601 55.216 86.652 55.216 86.6438 55.216C86.6356 55.216 86.6275 55.216 86.6193 55.216C86.6112 55.216 86.603 55.216 86.5948 55.216C86.5867 55.216 86.5785 55.216 86.5704 55.216C86.5622 55.216 86.5541 55.216 86.5459 55.216C86.5378 55.216 86.5296 55.216 86.5215 55.216C86.5133 55.216 86.5052 55.216 86.497 55.216C86.4889 55.216 86.4807 55.216 86.4726 55.216C86.4644 55.216 86.4563 55.216 86.4482 55.216C86.44 55.216 86.4319 55.216 86.4237 55.216C86.4156 55.216 86.4074 55.216 86.3993 55.216C86.3912 55.216 86.383 55.216 86.3749 55.216C86.3668 55.216 86.3586 55.216 86.3505 55.216C86.3424 55.216 86.3342 55.216 86.3261 55.216C86.318 55.216 86.3098 55.216 86.3017 55.216C86.2936 55.216 86.2854 55.216 86.2773 55.216C86.2692 55.216 86.2611 55.216 86.2529 55.216C86.2448 55.216 86.2367 55.216 86.2286 55.216C86.2205 55.216 86.2123 55.216 86.2042 55.216C86.1961 55.216 86.188 55.216 86.1799 55.216C86.1717 55.216 86.1636 55.216 86.1555 55.216C86.1474 55.216 86.1393 55.216 86.1312 55.216C86.123 55.216 86.1149 55.216 86.1068 55.216C86.0987 55.216 86.0906 55.216 86.0825 55.216C86.0744 55.216 86.0663 55.216 86.0582 55.216C86.0501 55.216 86.042 55.216 86.0339 55.216C86.0258 55.216 86.0176 55.216 86.0095 55.216C86.0014 55.216 85.9933 55.216 85.9852 55.216C85.9771 55.216 85.969 55.216 85.9609 55.216C85.9529 55.216 85.9448 55.216 85.9367 55.216C85.9286 55.216 85.9205 55.216 85.9124 55.216C85.9043 55.216 85.8962 55.216 85.8881 55.216C85.88 55.216 85.8719 55.216 85.8638 55.216C85.8557 55.216 85.8477 55.216 85.8396 55.216C85.8315 55.216 85.8234 55.216 85.8153 55.216C85.8072 55.216 85.7992 55.216 85.7911 55.216C85.783 55.216 85.7749 55.216 85.7668 55.216C85.7588 55.216 85.7507 55.216 85.7426 55.216C85.7345 55.216 85.7264 55.216 85.7184 55.216C85.7103 55.216 85.7022 55.216 85.6941 55.216C85.6861 55.216 85.678 55.216 85.6699 55.216C85.6619 55.216 85.6538 55.216 85.6457 55.216C85.6377 55.216 85.6296 55.216 85.6215 55.216C85.6135 55.216 85.6054 55.216 85.5973 55.216C85.5893 55.216 85.5812 55.216 85.5731 55.216C85.5651 55.216 85.557 55.216 85.549 55.216C85.5409 55.216 85.5329 55.216 85.5248 55.216C85.5167 55.216 85.5087 55.216 85.5006 55.216C85.4926 55.216 85.4845 55.216 85.4765 55.216C85.4684 55.216 85.4604 55.216 85.4523 55.216C85.4443 55.216 85.4362 55.216 85.4282 55.216C85.4201 55.216 85.4121 55.216 85.404 55.216C85.396 55.216 85.3879 55.216 85.3799 55.216C85.3719 55.216 85.3638 55.216 85.3558 55.216C85.3477 55.216 85.3397 55.216 85.3317 55.216C85.3236 55.216 85.3156 55.216 85.3075 55.216C85.2995 55.216 85.2915 55.216 85.2834 55.216C85.2754 55.216 85.2674 55.216 85.2593 55.216C85.2513 55.216 85.2433 55.216 85.2352 55.216C85.2272 55.216 85.2192 55.216 85.2112 55.216C85.2031 55.216 85.1951 55.216 85.1871 55.216C85.1791 55.216 85.171 55.216 85.163 55.216C85.155 55.216 85.147 55.216 85.139 55.216C85.1309 55.216 85.1229 55.216 85.1149 55.216C85.1069 55.216 85.0989 55.216 85.0908 55.216C85.0828 55.216 85.0748 55.216 85.0668 55.216C85.0588 55.216 85.0508 55.216 85.0428 55.216C85.0348 55.216 85.0267 55.216 85.0187 55.216C85.0107 55.216 85.0027 55.216 84.9947 55.216C84.9867 55.216 84.9787 55.216 84.9707 55.216C84.9627 55.216 84.9547 55.216 84.9467 55.216C84.9387 55.216 84.9307 55.216 84.9227 55.216C84.9147 55.216 84.9067 55.216 84.8987 55.216C84.8907 55.216 84.8827 55.216 84.8747 55.216C84.8667 55.216 84.8587 55.216 84.8507 55.216C84.8427 55.216 84.8347 55.216 84.8267 55.216C84.8187 55.216 84.8108 55.216 84.8028 55.216C84.7948 55.216 84.7868 55.216 84.7788 55.216C84.7708 55.216 84.7628 55.216 84.7549 55.216C84.7469 55.216 84.7389 55.216 84.7309 55.216C84.7229 55.216 84.7149 55.216 84.707 55.216C84.699 55.216 84.691 55.216 84.683 55.216C84.6751 55.216 84.6671 55.216 84.6591 55.216C84.6511 55.216 84.6432 55.216 84.6352 55.216C84.6272 55.216 84.6192 55.216 84.6113 55.216C84.6033 55.216 84.5953 55.216 84.5874 55.216C84.5794 55.216 84.5714 55.216 84.5635 55.216C84.5555 55.216 84.5475 55.216 84.5396 55.216C84.5316 55.216 84.5236 55.216 84.5157 55.216C84.5077 55.216 84.4998 55.216 84.4918 55.216C84.4838 55.216 84.4759 55.216 84.4679 55.216C84.46 55.216 84.452 55.216 84.4441 55.216C84.4361 55.216 84.4282 55.216 84.4202 55.216C84.4122 55.216 84.4043 55.216 84.3963 55.216C84.3884 55.216 84.3804 55.216 84.3725 55.216C84.3646 55.216 84.3566 55.216 84.3487 55.216C84.3407 55.216 84.3328 55.216 84.3248 55.216C84.3169 55.216 84.3089 55.216 84.301 55.216C84.2931 55.216 84.2851 55.216 84.2772 55.216C84.2692 55.216 84.2613 55.216 84.2534 55.216C84.2454 55.216 84.2375 55.216 84.2296 55.216C84.2216 55.216 84.2137 55.216 84.2058 55.216C84.1978 55.216 84.1899 55.216 84.182 55.216C84.174 55.216 84.1661 55.216 84.1582 55.216C84.1503 55.216 84.1423 55.216 84.1344 55.216C84.1265 55.216 84.1186 55.216 84.1106 55.216C84.1027 55.216 84.0948 55.216 84.0869 55.216C84.079 55.216 84.071 55.216 84.0631 55.216C84.0552 55.216 84.0473 55.216 84.0394 55.216C84.0315 55.216 84.0235 55.216 84.0156 55.216C84.0077 55.216 83.9998 55.216 83.9919 55.216C83.984 55.216 83.9761 55.216 83.9682 55.216C83.9602 55.216 83.9523 55.216 83.9444 55.216C83.9365 55.216 83.9286 55.216 83.9207 55.216C83.9128 55.216 83.9049 55.216 83.897 55.216C83.8891 55.216 83.8812 55.216 83.8733 55.216C83.8654 55.216 83.8575 55.216 83.8496 55.216C83.8417 55.216 83.8338 55.216 83.8259 55.216C83.818 55.216 83.8101 55.216 83.8022 55.216C83.7943 55.216 83.7865 55.216 83.7786 55.216C83.7707 55.216 83.7628 55.216 83.7549 55.216C83.747 55.216 83.7391 55.216 83.7312 55.216C83.7233 55.216 83.7155 55.216 83.7076 55.216C83.6997 55.216 83.6918 55.216 83.6839 55.216C83.676 55.216 83.6682 55.216 83.6603 55.216C83.6524 55.216 83.6445 55.216 83.6367 55.216C83.6288 55.216 83.6209 55.216 83.613 55.216C83.6051 55.216 83.5973 55.216 83.5894 55.216C83.5815 55.216 83.5737 55.216 83.5658 55.216C83.5579 55.216 83.55 55.216 83.5422 55.216C83.5343 55.216 83.5264 55.216 83.5186 55.216C83.5107 55.216 83.5028 55.216 83.495 55.216C83.4871 55.216 83.4793 55.216 83.4714 55.216C83.4635 55.216 83.4557 55.216 83.4478 55.216C83.44 55.216 83.4321 55.216 83.4242 55.216C83.4164 55.216 83.4085 55.216 83.4007 55.216C83.3928 55.216 83.385 55.216 83.3771 55.216C83.3693 55.216 83.3614 55.216 83.3536 55.216C83.3457 55.216 83.3379 55.216 83.33 55.216C83.3222 55.216 83.3143 55.216 83.3065 55.216C83.2986 55.216 83.2908 55.216 83.2829 55.216C83.2751 55.216 83.2673 55.216 83.2594 55.216C83.2516 55.216 83.2437 55.216 83.2359 55.216C83.2281 55.216 83.2202 55.216 83.2124 55.216C83.2045 55.216 83.1967 55.216 83.1889 55.216C83.181 55.216 83.1732 55.216 83.1654 55.216C83.1576 55.216 83.1497 55.216 83.1419 55.216C83.1341 55.216 83.1262 55.216 83.1184 55.216C83.1106 55.216 83.1028 55.216 83.0949 55.216C83.0871 55.216 83.0793 55.216 83.0715 55.216C83.0636 55.216 83.0558 55.216 83.048 55.216C83.0402 55.216 83.0324 55.216 83.0245 55.216C83.0167 55.216 83.0089 55.216 83.0011 55.216C82.9933 55.216 82.9855 55.216 82.9776 55.216C82.9698 55.216 82.962 55.216 82.9542 55.216C82.9464 55.216 82.9386 55.216 82.9308 55.216C82.923 55.216 82.9152 55.216 82.9073 55.216C82.8995 55.216 82.8917 55.216 82.8839 55.216C82.8761 55.216 82.8683 55.216 82.8605 55.216C82.8527 55.216 82.8449 55.216 82.8371 55.216C82.8293 55.216 82.8215 55.216 82.8137 55.216C82.8059 55.216 82.7981 55.216 82.7903 55.216C82.7825 55.216 82.7747 55.216 82.7669 55.216C82.7592 55.216 82.7514 55.216 82.7436 55.216C82.7358 55.216 82.728 55.216 82.7202 55.216C82.7124 55.216 82.7046 55.216 82.6968 55.216C82.6891 55.216 82.6813 55.216 82.6735 55.216C82.6657 55.216 82.6579 55.216 82.6501 55.216C82.6424 55.216 82.6346 55.216 82.6268 55.216C82.619 55.216 82.6112 55.216 82.6035 55.216C82.5957 55.216 82.5879 55.216 82.5801 55.216C82.5724 55.216 82.5646 55.216 82.5568 55.216C82.549 55.216 82.5413 55.216 82.5335 55.216C82.5257 55.216 82.518 55.216 82.5102 55.216C82.5024 55.216 82.4946 55.216 82.4869 55.216C82.4791 55.216 82.4714 55.216 82.4636 55.216C82.4558 55.216 82.4481 55.216 82.4403 55.216C82.4325 55.216 82.4248 55.216 82.417 55.216C82.4093 55.216 82.4015 55.216 82.3937 55.216C82.386 55.216 82.3782 55.216 82.3705 55.216C82.3627 55.216 82.355 55.216 82.3472 55.216C82.3395 55.216 82.3317 55.216 82.324 55.216C82.3162 55.216 82.3085 55.216 82.3007 55.216C82.293 55.216 82.2852 55.216 82.2775 55.216C82.2697 55.216 82.262 55.216 82.2542 55.216C82.2465 55.216 82.2388 55.216 82.231 55.216C82.2233 55.216 82.2155 55.216 82.2078 55.216C82.2001 55.216 82.1923 55.216 82.1846 55.216C82.1768 55.216 82.1691 55.216 82.1614 55.216C82.1536 55.216 82.1459 55.216 82.1382 55.216C82.1304 55.216 82.1227 55.216 82.115 55.216C82.1073 55.216 82.0995 55.216 82.0918 55.216C82.0841 55.216 82.0763 55.216 82.0686 55.216C82.0609 55.216 82.0532 55.216 82.0455 55.216C82.0377 55.216 82.03 55.216 82.0223 55.216C82.0146 55.216 82.0068 55.216 81.9991 55.216C81.9914 55.216 81.9837 55.216 81.976 55.216C81.9683 55.216 81.9605 55.216 81.9528 55.216C81.9451 55.216 81.9374 55.216 81.9297 55.216C81.922 55.216 81.9143 55.216 81.9066 55.216C81.8989 55.216 81.8911 55.216 81.8834 55.216C81.8757 55.216 81.868 55.216 81.8603 55.216C81.8526 55.216 81.8449 55.216 81.8372 55.216C81.8295 55.216 81.8218 55.216 81.8141 55.216C81.8064 55.216 81.7987 55.216 81.791 55.216C81.7833 55.216 81.7756 55.216 81.7679 55.216C81.7602 55.216 81.7525 55.216 81.7448 55.216C81.7371 55.216 81.7295 55.216 81.7218 55.216C81.7141 55.216 81.7064 55.216 81.6987 55.216C81.691 55.216 81.6833 55.216 81.6756 55.216C81.6679 55.216 81.6603 55.216 81.6526 55.216C81.6449 55.216 81.6372 55.216 81.6295 55.216C81.6218 55.216 81.6142 55.216 81.6065 55.216C81.5988 55.216 81.5911 55.216 81.5834 55.216C81.5758 55.216 81.5681 55.216 81.5604 55.216C81.5527 55.216 81.5451 55.216 81.5374 55.216C81.5297 55.216 81.5221 55.216 81.5144 55.216C81.5067 55.216 81.499 55.216 81.4914 55.216C81.4837 55.216 81.476 55.216 81.4684 55.216C81.4607 55.216 81.453 55.216 81.4454 55.216C81.4377 55.216 81.43 55.216 81.4224 55.216C81.4147 55.216 81.4071 55.216 81.3994 55.216C81.3917 55.216 81.3841 55.216 81.3764 55.216C81.3688 55.216 81.3611 55.216 81.3535 55.216C81.3458 55.216 81.3382 55.216 81.3305 55.216C81.3229 55.216 81.3152 55.216 81.3076 55.216C81.2999 55.216 81.2923 55.216 81.2846 55.216C81.277 55.216 81.2693 55.216 81.2617 55.216C81.254 55.216 81.2464 55.216 81.2387 55.216C81.2311 55.216 81.2234 55.216 81.2158 55.216C81.2082 55.216 81.2005 55.216 81.1929 55.216C81.1852 55.216 81.1776 55.216 81.17 55.216C81.1623 55.216 81.1547 55.216 81.1471 55.216C81.1394 55.216 81.1318 55.216 81.1242 55.216C81.1165 55.216 81.1089 55.216 81.1013 55.216C81.0936 55.216 81.086 55.216 81.0784 55.216C81.0708 55.216 81.0631 55.216 81.0555 55.216C81.0479 55.216 81.0403 55.216 81.0326 55.216C81.025 55.216 81.0174 55.216 81.0098 55.216C81.0022 55.216 80.9945 55.216 80.9869 55.216C80.9793 55.216 80.9717 55.216 80.9641 55.216C80.9564 55.216 80.9488 55.216 80.9412 55.216C80.9336 55.216 80.926 55.216 80.9184 55.216C80.9108 55.216 80.9032 55.216 80.8955 55.216C80.8879 55.216 80.8803 55.216 80.8727 55.216C80.8651 55.216 80.8575 55.216 80.8499 55.216C80.8423 55.216 80.8347 55.216 80.8271 55.216C80.8195 55.216 80.8119 55.216 80.8043 55.216C80.7967 55.216 80.7891 55.216 80.7815 55.216C80.7739 55.216 80.7663 55.216 80.7587 55.216C80.7511 55.216 80.7435 55.216 80.7359 55.216C80.7283 55.216 80.7207 55.216 80.7131 55.216C80.7056 55.216 80.698 55.216 80.6904 55.216C80.6828 55.216 80.6752 55.216 80.6676 55.216C80.66 55.216 80.6524 55.216 80.6449 55.216C80.6373 55.216 80.6297 55.216 80.6221 55.216C80.6145 55.216 80.6069 55.216 80.5994 55.216C80.5918 55.216 80.5842 55.216 80.5766 55.216C80.569 55.216 80.5615 55.216 80.5539 55.216C80.5463 55.216 80.5387 55.216 80.5312 55.216C80.5236 55.216 80.516 55.216 80.5085 55.216C80.5009 55.216 80.4933 55.216 80.4857 55.216C80.4782 55.216 80.4706 55.216 80.463 55.216C80.4555 55.216 80.4479 55.216 80.4404 55.216C80.4328 55.216 80.4252 55.216 80.4177 55.216C80.4101 55.216 80.4025 55.216 80.395 55.216C80.3874 55.216 80.3799 55.216 80.3723 55.216C80.3647 55.216 80.3572 55.216 80.3496 55.216C80.3421 55.216 80.3345 55.216 80.327 55.216C80.3194 55.216 80.3119 55.216 80.3043 55.216C80.2968 55.216 80.2892 55.216 80.2817 55.216C80.2741 55.216 80.2666 55.216 80.259 55.216C80.2515 55.216 80.2439 55.216 80.2364 55.216C80.2289 55.216 80.2213 55.216 80.2138 55.216C80.2062 55.216 80.1987 55.216 80.1912 55.216C80.1836 55.216 80.1761 55.216 80.1685 55.216C80.161 55.216 80.1535 55.216 80.1459 55.216C80.1384 55.216 80.1309 55.216 80.1233 55.216C80.1158 55.216 80.1083 55.216 80.1007 55.216C80.0932 55.216 80.0857 55.216 80.0782 55.216C80.0706 55.216 80.0631 55.216 80.0556 55.216C80.0481 55.216 80.0405 55.216 80.033 55.216C80.0255 55.216 80.018 55.216 80.0104 55.216C80.0029 55.216 79.9954 55.216 79.9879 55.216C79.9804 55.216 79.9728 55.216 79.9653 55.216C79.9578 55.216 79.9503 55.216 79.9428 55.216C79.9353 55.216 79.9278 55.216 79.9202 55.216C79.9127 55.216 79.9052 55.216 79.8977 55.216C79.8902 55.216 79.8827 55.216 79.8752 55.216C79.8677 55.216 79.8602 55.216 79.8527 55.216C79.8452 55.216 79.8377 55.216 79.8302 55.216C79.8227 55.216 79.8152 55.216 79.8077 55.216C79.8002 55.216 79.7927 55.216 79.7852 55.216C79.7777 55.216 79.7702 55.216 79.7627 55.216C79.7552 55.216 79.7477 55.216 79.7402 55.216C79.7327 55.216 79.7252 55.216 79.7177 55.216C79.7102 55.216 79.7027 55.216 79.6952 55.216C79.6877 55.216 79.6803 55.216 79.6728 55.216C79.6653 55.216 79.6578 55.216 79.6503 55.216C79.6428 55.216 79.6353 55.216 79.6279 55.216C79.6204 55.216 79.6129 55.216 79.6054 55.216C79.5979 55.216 79.5905 55.216 79.583 55.216C79.5755 55.216 79.568 55.216 79.5606 55.216C79.5531 55.216 79.5456 55.216 79.5381 55.216C79.5307 55.216 79.5232 55.216 79.5157 55.216C79.5082 55.216 79.5008 55.216 79.4933 55.216C79.4858 55.216 79.4784 55.216 79.4709 55.216C79.4634 55.216 79.456 55.216 79.4485 55.216C79.441 55.216 79.4336 55.216 79.4261 55.216C79.4187 55.216 79.4112 55.216 79.4037 55.216C79.3963 55.216 79.3888 55.216 79.3814 55.216C79.3739 55.216 79.3665 55.216 79.359 55.216C79.3515 55.216 79.3441 55.216 79.3366 55.216C79.3292 55.216 79.3217 55.216 79.3143 55.216C79.3068 55.216 79.2994 55.216 79.2919 55.216C79.2845 55.216 79.277 55.216 79.2696 55.216C79.2621 55.216 79.2547 55.216 79.2473 55.216C79.2398 55.216 79.2324 55.216 79.2249 55.216C79.2175 55.216 79.2101 55.216 79.2026 55.216C79.1952 55.216 79.1877 55.216 79.1803 55.216C79.1729 55.216 79.1654 55.216 79.158 55.216C79.1506 55.216 79.1431 55.216 79.1357 55.216C79.1283 55.216 79.1208 55.216 79.1134 55.216C79.106 55.216 79.0985 55.216 79.0911 55.216C79.0837 55.216 79.0763 55.216 79.0688 55.216C79.0614 55.216 79.054 55.216 79.0466 55.216C79.0391 55.216 79.0317 55.216 79.0243 55.216C79.0169 55.216 79.0095 55.216 79.002 55.216C78.9946 55.216 78.9872 55.216 78.9798 55.216C78.9724 55.216 78.965 55.216 78.9575 55.216C78.9501 55.216 78.9427 55.216 78.9353 55.216C78.9279 55.216 78.9205 55.216 78.9131 55.216C78.9057 55.216 78.8982 55.216 78.8908 55.216C78.8834 55.216 78.876 55.216 78.8686 55.216C78.8612 55.216 78.8538 55.216 78.8464 55.216C78.839 55.216 78.8316 55.216 78.8242 55.216C78.8168 55.216 78.8094 55.216 78.802 55.216C78.7946 55.216 78.7872 55.216 78.7798 55.216C78.7724 55.216 78.765 55.216 78.7576 55.216C78.7502 55.216 78.7428 55.216 78.7355 55.216C78.7281 55.216 78.7207 55.216 78.7133 55.216C78.7059 55.216 78.6985 55.216 78.6911 55.216C78.6837 55.216 78.6763 55.216 78.669 55.216C78.6616 55.216 78.6542 55.216 78.6468 55.216C78.6394 55.216 78.6321 55.216 78.6247 55.216C78.6173 55.216 78.6099 55.216 78.6025 55.216C78.5952 55.216 78.5878 55.216 78.5804 55.216C78.573 55.216 78.5657 55.216 78.5583 55.216C78.5509 55.216 78.5435 55.216 78.5362 55.216C78.5288 55.216 78.5214 55.216 78.5141 55.216C78.5067 55.216 78.4993 55.216 78.492 55.216C78.4846 55.216 78.4772 55.216 78.4699 55.216C78.4625 55.216 78.4551 55.216 78.4478 55.216C78.4404 55.216 78.433 55.216 78.4257 55.216C78.4183 55.216 78.411 55.216 78.4036 55.216C78.3963 55.216 78.3889 55.216 78.3815 55.216C78.3742 55.216 78.3668 55.216 78.3595 55.216C78.3521 55.216 78.3448 55.216 78.3374 55.216C78.3301 55.216 78.3227 55.216 78.3154 55.216C78.308 55.216 78.3007 55.216 78.2933 55.216C78.286 55.216 78.2786 55.216 78.2713 55.216C78.264 55.216 78.2566 55.216 78.2493 55.216C78.2419 55.216 78.2346 55.216 78.2273 55.216V57.6023ZM90.3928 57.6023C90.7048 57.6023 90.844 57.6574 90.8871 57.6794C90.9171 57.6946 90.9175 57.7003 90.9213 57.707C90.9337 57.729 90.9575 57.7862 90.9732 57.9035C90.9892 58.0237 90.9907 58.1493 90.9907 58.3182H93.377C93.377 58.0398 93.4005 57.2433 92.9986 56.5325C92.5136 55.6747 91.6076 55.216 90.3928 55.216V57.6023ZM90.9907 58.3182C90.9907 65.3288 96.797 70.966 103.902 70.966V68.5796C98.0635 68.5796 93.377 63.96 93.377 58.3182H90.9907ZM103.902 70.966C111.007 70.966 116.813 65.3288 116.813 58.3182H114.427C114.427 63.96 109.74 68.5796 103.902 68.5796V70.966ZM116.813 58.3182C116.813 58.1493 116.815 58.0237 116.831 57.9035C116.846 57.7862 116.87 57.729 116.883 57.707C116.886 57.7003 116.887 57.6946 116.917 57.6794C116.96 57.6574 117.099 57.6023 117.411 57.6023V55.216C116.196 55.216 115.29 55.6747 114.805 56.5325C114.403 57.2433 114.427 58.0398 114.427 58.3182H116.813ZM117.411 57.6023H141.227V55.216H117.411V57.6023ZM101.947 2V17.9942H104.334V2H101.947ZM77.3365 6.90107L87.9316 18.7881L89.7131 17.2003L79.118 5.31324L77.3365 6.90107ZM127.068 5.31324L116.473 17.2003L118.254 18.7881L128.849 6.90107L127.068 5.31324Z" fill="#D1D1D1"/>
</svg>
