<svg width="77" height="79" viewBox="0 0 77 79" fill="none" xmlns="http://www.w3.org/2000/svg">
<path d="M0.675393 37.2262L44.9067 14.5604C45.3401 14.3383 45.1821 13.6837 44.6952 13.6837H34.2062C34.1321 13.6837 34.059 13.7015 33.9932 13.7356L0.250826 31.1806C0.0967589 31.2602 0 31.4192 0 31.5926V36.8134C0 37.1602 0.366729 37.3844 0.675393 37.2262Z" fill="#C73538"/>
<path d="M0.977861 41.3979L45.6047 64.2952C46.0378 64.5174 45.8798 65.1717 45.3929 65.1717L34.4366 65.1718C34.3634 65.1718 34.2912 65.1544 34.2259 65.1212L0.555405 47.9528C0.400055 47.8736 0.302256 47.7139 0.302256 47.5395L0.302256 41.8106C0.302256 41.4636 0.669185 41.2395 0.977861 41.3979Z" fill="#C73538"/>
<path d="M0.951751 2.11813L18.3483 11.4855C18.4835 11.5583 18.6346 11.5964 18.7881 11.5964H49.5609C50.5312 11.5964 50.8503 12.8976 49.9902 13.3465L2.04627 38.3699C1.38036 38.7174 1.38201 39.671 2.04911 40.0162L49.9589 64.8116C50.8221 65.2584 50.5045 66.5633 49.5325 66.5633H18.5539C18.4018 66.5633 18.2521 66.6006 18.1179 66.6721L0.95556 75.8105C0.652946 75.9716 0.463867 76.2865 0.463867 76.6293V77.2319C0.463867 77.7443 0.879216 78.1596 1.39158 78.1596H75.8404C76.3527 78.1596 76.7681 77.7443 76.7681 77.2319V65.2753C76.7681 64.927 76.573 64.608 76.2629 64.4494L28.5106 40.0179C27.8384 39.674 27.8367 38.7141 28.5075 38.3677L76.266 13.711C76.5744 13.5518 76.7681 13.2338 76.7681 12.8867V0.927711C76.7681 0.41535 76.3527 0 75.8404 0H1.39158C0.879218 0 0.463867 0.41535 0.463867 0.92771V1.30131C0.463867 1.64259 0.651256 1.95632 0.951751 2.11813Z" fill="#C8C8C6"/>
<g filter="url(#filter0_i_14_214)">
<path d="M76.9998 61.1161V15.5032C76.9998 15.4136 76.9051 15.3558 76.8254 15.3966L32.0093 38.362C31.3335 38.7084 31.3373 39.6756 32.0159 40.0166L75.6555 61.945C76.2725 62.255 76.9998 61.8065 76.9998 61.1161Z" fill="#AC312C"/>
</g>
<path d="M71.4339 25.6895V52.063C71.4339 52.7554 70.7029 53.2037 70.0858 52.89L45.1659 40.2224C44.5018 39.8848 44.4864 38.9416 45.1392 38.5825L70.0591 24.8766C70.6773 24.5366 71.4339 24.9839 71.4339 25.6895Z" fill="url(#paint0_linear_14_214)"/>
<defs>
<filter id="filter0_i_14_214" x="31.5049" y="15.3833" width="47.3505" height="48.5171" filterUnits="userSpaceOnUse" color-interpolation-filters="sRGB">
<feFlood flood-opacity="0" result="BackgroundImageFix"/>
<feBlend mode="normal" in="SourceGraphic" in2="BackgroundImageFix" result="shape"/>
<feColorMatrix in="SourceAlpha" type="matrix" values="0 0 0 0 0 0 0 0 0 0 0 0 0 0 0 0 0 0 127 0" result="hardAlpha"/>
<feOffset dx="2.78313" dy="1.85542"/>
<feGaussianBlur stdDeviation="0.927711"/>
<feComposite in2="hardAlpha" operator="arithmetic" k2="-1" k3="1"/>
<feColorMatrix type="matrix" values="0 0 0 0 0 0 0 0 0 0 0 0 0 0 0 0 0 0 0.25 0"/>
<feBlend mode="normal" in2="shape" result="effect1_innerShadow_14_214"/>
</filter>
<linearGradient id="paint0_linear_14_214" x1="71.4339" y1="51.9518" x2="56.3586" y2="33.3976" gradientUnits="userSpaceOnUse">
<stop stop-color="#BC3C39"/>
<stop offset="1" stop-color="#431518"/>
</linearGradient>
</defs>
</svg>
