<svg width="166" height="169" viewBox="0 0 166 169" fill="none" xmlns="http://www.w3.org/2000/svg">
<path d="M1.45604 80.2539L96.8118 31.39C97.7462 30.9112 97.4057 29.5 96.3558 29.5H73.7432C73.5834 29.5 73.4259 29.5383 73.284 29.6117L0.540742 67.2204C0.208597 67.3922 0 67.7348 0 68.1087V79.3639C0 80.1116 0.79061 80.5949 1.45604 80.2539Z" fill="#C73538"/>
<path d="M2.10854 89.2473L98.317 138.61C99.2508 139.089 98.9101 140.5 97.8605 140.5L74.2404 140.5C74.0825 140.5 73.9268 140.463 73.7861 140.391L1.19779 103.379C0.862878 103.208 0.652039 102.864 0.652039 102.488L0.652039 90.137C0.652039 89.3891 1.44309 88.9059 2.10854 89.2473Z" fill="#C73538"/>
<path d="M2.0518 4.56635L39.556 24.7609C39.8475 24.9179 40.1733 25 40.5042 25H106.846C108.937 25 109.625 27.8052 107.771 28.773L4.41141 82.7195C2.97582 83.4688 2.97937 85.5244 4.41754 86.2687L107.704 139.724C109.565 140.687 108.88 143.5 106.784 143.5H39.9993C39.6715 143.5 39.3487 143.581 39.0593 143.735L2.06001 163.436C1.40763 163.783 1 164.462 1 165.201V166.5C1 167.605 1.89543 168.5 3 168.5H163.5C164.605 168.5 165.5 167.605 165.5 166.5V140.723C165.5 139.972 165.079 139.285 164.411 138.943L61.4643 86.2724C60.0153 85.5311 60.0115 83.4615 61.4578 82.7148L164.417 29.5589C165.082 29.2156 165.5 28.53 165.5 27.7817V2C165.5 0.895431 164.605 0 163.5 0H3C1.89543 0 1 0.895431 1 2V2.80541C1 3.54118 1.40398 4.21753 2.0518 4.56635Z" fill="#C8C8C6"/>
<g filter="url(#filter0_i_14_223)">
<path d="M166 131.757V33.4225C166 33.2294 165.796 33.1046 165.624 33.1927L69.0075 82.7026C67.5505 83.4492 67.5588 85.5345 69.0217 86.2696L163.102 133.544C164.432 134.212 166 133.245 166 131.757Z" fill="#AC312C"/>
</g>
<path d="M154 55.3825V112.24C154 113.732 152.424 114.699 151.094 114.023L97.3703 86.7133C95.9386 85.9854 95.9055 83.952 97.3128 83.178L151.036 53.6301C152.369 52.897 154 53.8613 154 55.3825Z" fill="url(#paint0_linear_14_223)"/>
<defs>
<filter id="filter0_i_14_223" x="67.9196" y="33.1639" width="102.08" height="104.595" filterUnits="userSpaceOnUse" color-interpolation-filters="sRGB">
<feFlood flood-opacity="0" result="BackgroundImageFix"/>
<feBlend mode="normal" in="SourceGraphic" in2="BackgroundImageFix" result="shape"/>
<feColorMatrix in="SourceAlpha" type="matrix" values="0 0 0 0 0 0 0 0 0 0 0 0 0 0 0 0 0 0 127 0" result="hardAlpha"/>
<feOffset dx="6" dy="4"/>
<feGaussianBlur stdDeviation="2"/>
<feComposite in2="hardAlpha" operator="arithmetic" k2="-1" k3="1"/>
<feColorMatrix type="matrix" values="0 0 0 0 0 0 0 0 0 0 0 0 0 0 0 0 0 0 0.25 0"/>
<feBlend mode="normal" in2="shape" result="effect1_innerShadow_14_223"/>
</filter>
<linearGradient id="paint0_linear_14_223" x1="154" y1="112" x2="121.5" y2="72" gradientUnits="userSpaceOnUse">
<stop stop-color="#BC3C39"/>
<stop offset="1" stop-color="#431518"/>
</linearGradient>
</defs>
</svg>
